<?xml version="1.0" encoding="UTF-8"?><svg id="Camada_2" xmlns="http://www.w3.org/2000/svg" viewBox="0 0 362.65 90.52"><defs><style>.cls-1{fill:#f5790d;}.cls-2{fill:#0285f4;}.cls-3{fill:#ffc000;}.cls-4{fill:#1d1dac;}.cls-5{fill:#09f4c8;}</style></defs><g id="Camada_1-2"><g><g><path class="cls-1" d="m181.11,78.08l-.09-39.45-19.35,32.5h-6.86l-19.25-31.65v38.6h-14.28V12.34h12.58l24.61,40.85,24.23-40.85h12.49l.19,65.74h-14.28Z"/><path class="cls-1" d="m210.98,12.34h29.87c7.14,0,13.45,1.36,18.92,4.08,5.48,2.72,9.73,6.56,12.77,11.5,3.04,4.95,4.55,10.71,4.55,17.28s-1.52,12.34-4.55,17.28c-3.04,4.95-7.29,8.78-12.77,11.5-5.48,2.72-11.79,4.08-18.92,4.08h-29.87V12.34Zm29.11,53.25c6.57,0,11.82-1.83,15.73-5.49,3.91-3.66,5.87-8.62,5.87-14.89s-1.96-11.22-5.87-14.89c-3.91-3.66-9.16-5.49-15.73-5.49h-13.9v40.76h13.9Z"/><path class="cls-1" d="m348.38,78.08l-.09-39.45-19.35,32.5h-6.86l-19.25-31.65v38.6h-14.28V12.34h12.58l24.61,40.85,24.23-40.85h12.49l.19,65.74h-14.28Z"/></g><g><rect class="cls-4" x="70.23" y="44.24" width="10.06" height="3.09"/><rect class="cls-4" x="23.03" y="44.24" width="14.1" height="3.09"/><rect class="cls-4" x="64.89" y="58.47" width="3.1" height="11.92" transform="translate(-25.28 52) rotate(-36.4)"/><rect class="cls-4" x="40.04" y="22.86" width="3.1" height="10.55" transform="translate(-8.62 28.1) rotate(-34.04)"/><path class="cls-4" d="m38.35,68.43l-2.43-1.92q7.44-9.4,8.71-8.46l-1.85,2.48.92-1.24,1.09,1.1c-.41.44-4.17,5.16-6.45,8.04Z"/><path class="cls-4" d="m63.51,32.97l-2.47-1.87q8.82-11.66,10.12-10.7l-.92,1.24,1.12,1.07c-.43.49-5.04,6.55-7.84,10.26Z"/><circle class="cls-3" cx="76.04" cy="12.18" r="12.18"/><circle class="cls-2" cx="83.92" cy="45.26" r="6.63"/><circle class="cls-5" cx="35.88" cy="18.81" r="6.63"/><circle class="cls-5" cx="76.04" cy="78.34" r="12.18"/><circle class="cls-3" cx="34.96" cy="70.29" r="6.63"/><circle class="cls-2" cx="12.18" cy="45.26" r="12.18"/><circle class="cls-1" cx="53.92" cy="45.78" r="17.74"/></g></g></g></svg>